# xmcd
#
# Track frame offsets: 
#        150
#        13902
#        26220
#        39757
#        50655
#        62662
#        74015
#        90790
#        102490
#        116752
#        128807
#
# Disc length: 1817 seconds
#
# Revision: 0
# Processed by: cddbd v1.5PL3 Copyright (c) Steve Scherf et al.
# Submitted via: ExactAudioCopy v0.95a4
#
DISCID=9607170b
DTITLE=Willie Nelson - To Lefty From Willie
DYEAR=2003
DGENRE=Country
TTITLE0=Mom And Dad's Waltz
TTITLE1=Look What Thoughts Will Do
TTITLE2=I Love You A Thousand Ways
TTITLE3=Always Late (With Your Kisses)
TTITLE4=I Want To Be With You Always
TTITLE5=She's Gone, Gone, Gone
TTITLE6=A Little Unfair
TTITLE7=I Never Go Around Mirrors
TTITLE8=That's The Way Love Goes
TTITLE9=Railroad Lady
TTITLE10=If You've Got The Money I've Got The Time
EXTD=
EXTT0=
EXTT1=
EXTT2=
EXTT3=
EXTT4=
EXTT5=
EXTT6=
EXTT7=
EXTT8=
EXTT9=
EXTT10=
PLAYORDER=
